<svg xml:space="preserve" style="enable-background:new 0 0 1024 1024;" viewBox="0 0 1024 1024" y="0px" x="0px" xmlns:xlink="http://www.w3.org/1999/xlink" xmlns="http://www.w3.org/2000/svg" id="图层_1" version="1.1">
<style type="text/css">
	.st0{fill:url(#SVGID_1_);}
	.st1{fill:url(#SVGID_00000122716718932651989810000007844892120773535660_);}
	.st2{fill:url(#SVGID_00000082344764127069836200000002405251842965392825_);}
	.st3{fill:url(#SVGID_00000147178005307996758420000004523064361360896934_);}
	.st4{fill:url(#SVGID_00000142139205014605879750000015145902821148548751_);}
	.st5{fill:#DC3547;}
	.st6{fill:url(#SVGID_00000108285900304294932150000004303129765732302758_);}
	.st7{opacity:0.3;fill:url(#SVGID_00000095328902816230559360000005132024095132486065_);}
	.st8{opacity:0.3;fill:url(#SVGID_00000134230106291418181880000005165388000754609842_);}
	.st9{fill:url(#SVGID_00000067918805933710372590000009602045027964335235_);}
	.st10{fill:url(#SVGID_00000061459883652361924460000000999958683218507702_);}
	.st11{fill:url(#SVGID_00000149370367503495462000000013132740259227381919_);}
	.st12{fill:url(#SVGID_00000023266047974497417050000014160575175787611009_);}
	.st13{fill:url(#SVGID_00000078759427363840063760000014152402038257832326_);}
	.st14{fill:url(#SVGID_00000174600958497710456720000000270940161839387027_);}
	.st15{fill:url(#SVGID_00000145761373239163887630000010472577922845515192_);}
	.st16{fill:url(#SVGID_00000139286301584846097000000003679530519070854795_);}
	.st17{fill:url(#SVGID_00000069358036519823732780000002725707393832019885_);}
	.st18{fill:url(#SVGID_00000124869240625082246380000017935938134147225475_);}
	.st19{opacity:0.3;fill:url(#SVGID_00000065796573588814774380000006715831665609434297_);}
	.st20{opacity:0.3;fill:url(#SVGID_00000012441616311428587970000015562298251128159631_);}
	.st21{opacity:0.3;fill:url(#SVGID_00000139288887040653327430000003756839675946796936_);}
	.st22{opacity:0.3;fill:url(#SVGID_00000061458586973898564700000012157073275674150539_);}
	.st23{fill:url(#SVGID_00000169547629616386983640000002807470235812185778_);}
	.st24{fill:#400A10;}
	.st25{fill:url(#SVGID_00000111159784485828107070000016015416131451343747_);}
	.st26{fill:url(#SVGID_00000131347559090440287310000016339481749270723747_);}
	.st27{fill:#F480B5;}
	.st28{fill:url(#SVGID_00000083080534993713896340000010824632240544916397_);}
	.st29{fill:url(#SVGID_00000129889608049635081970000002787447159720162975_);}
	.st30{fill:url(#SVGID_00000058583041749515690270000001469639463064613822_);}
	.st31{fill:url(#SVGID_00000033344722184979482260000000525313285999657109_);}
	.st32{fill:url(#SVGID_00000170281035925974925140000015881050787037830793_);}
	.st33{fill:url(#SVGID_00000158738990376148731180000000056985906787313308_);}
	.st34{fill:url(#SVGID_00000109716443022105545690000007675083357100105369_);}
	.st35{fill:url(#SVGID_00000140735185407424162710000018428335136973746097_);}
	.st36{fill:url(#SVGID_00000013879483329624871870000012487350455903891856_);}
	.st37{fill:url(#SVGID_00000085211546045504164180000015366104373578538422_);}
	.st38{fill:url(#SVGID_00000165930613305807115120000001080044609807435654_);}
	.st39{fill:url(#SVGID_00000138553425961282549250000005452141497469660034_);}
	.st40{fill:#50171E;}
	.st41{fill:#DD2236;}
	.st42{fill:url(#SVGID_00000181088210175106041340000012352214766223267982_);}
	.st43{fill:url(#SVGID_00000065053948951120003150000003062332530941704382_);}
	.st44{fill:url(#SVGID_00000075879168188302290630000011754370717284221602_);}
	.st45{fill:url(#SVGID_00000030488806014875778480000006094986949887004074_);}
	.st46{opacity:0.3;fill:url(#SVGID_00000085223379605600295250000008817146496517221770_);}
	.st47{fill:url(#SVGID_00000178918414234950542380000007355822501117216150_);}
	.st48{fill:url(#SVGID_00000160911822899318724440000005714333770220386688_);}
	.st49{fill:url(#SVGID_00000156585168184199217170000016125074543716223360_);}
	.st50{fill:#FFFFFF;}
	.st51{opacity:0.3;fill:url(#SVGID_00000105407770482163868040000001403505547293308091_);}
	.st52{opacity:0.3;fill:url(#SVGID_00000132805001514472738820000018108040129875193497_);}
	.st53{fill:url(#SVGID_00000064312281230793197720000017453387635333912198_);}
	.st54{fill:url(#SVGID_00000104672814127917118500000002826513195427629220_);}
	.st55{fill:url(#SVGID_00000107551793618551111550000012283002218025479325_);}
	.st56{fill:url(#SVGID_00000118364587860229082440000007714261321363273125_);}
	.st57{fill:url(#SVGID_00000006689943313000814870000015274149501657435292_);}
	.st58{fill:url(#SVGID_00000181063423501236844150000016477553995343593909_);}
	.st59{fill:url(#SVGID_00000033357894995644861430000009377934822168302509_);}
	.st60{fill:url(#SVGID_00000002383337794407475280000017551361094168454311_);}
	.st61{fill:#F7A1CB;}
	.st62{fill:url(#SVGID_00000083078511577198972700000006861697408400379823_);}
	.st63{fill:url(#SVGID_00000026161882334090441160000014394938607552309405_);}
	.st64{fill:url(#SVGID_00000014635455425156170650000008289168211361245622_);}
	.st65{fill:url(#SVGID_00000011008541705040871710000013998034161718865300_);}
	.st66{opacity:0.3;fill:url(#SVGID_00000015333097342227566590000006305203150932163238_);}
	.st67{fill:url(#SVGID_00000087396839613356058810000012392875432294226566_);}
	.st68{fill:url(#SVGID_00000150103083252952177210000008072946907616318118_);}
	.st69{fill:url(#SVGID_00000170260426484815509140000008719421360735144882_);}
	.st70{fill:url(#SVGID_00000096748769266655695480000006474660109890742961_);}
	.st71{fill:url(#SVGID_00000012433536747039271770000007325744757116562346_);}
	.st72{fill:url(#SVGID_00000134248385727301274430000016263155104706525584_);}
	.st73{fill:url(#SVGID_00000000196102401656072560000003455928251888266678_);}
	.st74{opacity:0.3;fill:url(#SVGID_00000127014213732671234640000006742330925987415700_);}
	.st75{opacity:0.3;fill:url(#SVGID_00000072278589782400938680000004189861495385041569_);}
	.st76{fill:url(#SVGID_00000069392138730895789060000005587068463713970829_);}
	.st77{fill:url(#SVGID_00000040544501140662267570000015880425961087090087_);}
	.st78{fill:url(#SVGID_00000047037704966426296510000005561965997524378794_);}
	.st79{fill:url(#SVGID_00000005247842757288630430000009609397411545566614_);}
	.st80{fill:url(#SVGID_00000010274641901474297690000011710546377843926413_);}
	.st81{fill:url(#SVGID_00000087371017342965158390000000024425233547990674_);}
	.st82{fill:url(#SVGID_00000052064718184562061190000003666280935198925201_);}
	.st83{fill:url(#SVGID_00000119103652837858273040000000959234717467571353_);}
	.st84{fill:url(#SVGID_00000104680996172808961470000003013064877201162160_);}
	.st85{fill:url(#SVGID_00000169531453327162340930000014488149759691524796_);}
	.st86{fill:url(#SVGID_00000062176430734426670870000000475501450648449717_);}
	.st87{opacity:0.3;fill:url(#SVGID_00000083804806484380258820000010054557897140615853_);}
	.st88{opacity:0.3;fill:url(#SVGID_00000063624686134053301670000009053590297821174677_);}
	.st89{fill:url(#SVGID_00000006703366011366949340000012461300628660721551_);}
	.st90{fill:url(#SVGID_00000039119060768668151840000017309638474706875554_);}
	.st91{fill:#940500;}
	.st92{fill:url(#SVGID_00000135669716880030540140000015279936693189261758_);}
	.st93{fill:url(#SVGID_00000023971276060781805450000014487136621102083509_);}
	.st94{opacity:0.3;fill:url(#SVGID_00000145760733772201107580000005676191585869645964_);}
	.st95{opacity:0.3;fill:url(#SVGID_00000119105171349815818010000015997608930307556239_);}
	.st96{fill:url(#SVGID_00000000220230525190081710000012306132522477184173_);}
	.st97{fill:url(#SVGID_00000016770180127315200430000003891640226710381702_);}
	.st98{fill:#CE5E91;}
	.st99{fill:url(#SVGID_00000066508218562611718970000012843016919948357512_);}
	.st100{fill:url(#SVGID_00000041997179875526585980000008283690334204538246_);}
	.st101{fill:none;}
	.st102{fill:url(#SVGID_00000020379882084475716230000006035117102242122376_);}
	.st103{fill:url(#SVGID_00000176042604008984188710000003646355829062471337_);}
	.st104{fill:url(#SVGID_00000078730316582163694160000006519923173012218518_);}
	.st105{opacity:0.3;fill:url(#SVGID_00000080926148314363235590000006055042331623593137_);}
	.st106{opacity:0.3;fill:url(#SVGID_00000044868043580756382540000018144929333816527253_);}
	.st107{fill:url(#SVGID_00000014608258295537494060000006700502374439536052_);}
	.st108{fill:url(#SVGID_00000031899832474916271530000000726493596682052771_);}
	.st109{opacity:0.3;fill:url(#SVGID_00000021095732179215189230000003622825045807645061_);}
	.st110{fill:url(#SVGID_00000013890422196045794470000007030011082331192759_);}
	.st111{fill:url(#SVGID_00000167359362216478329300000004059445452650767513_);}
	.st112{opacity:0.3;fill:url(#SVGID_00000010998890572705560930000000485670771110932358_);}
	.st113{opacity:0.3;fill:url(#SVGID_00000000205831534468808020000015978178168505223572_);}
	.st114{fill:url(#SVGID_00000028302457392788689680000005539882781770442370_);}
	.st115{fill:#CE0602;}
	.st116{fill:url(#SVGID_00000072239880146668517610000004569478037473979557_);}
	.st117{fill:url(#SVGID_00000105393122819590307160000005053201516164803995_);}
	.st118{opacity:0.3;fill:url(#SVGID_00000103950929662156789120000015466290809821795218_);}
	.st119{fill:url(#SVGID_00000105424093308533364970000017618920343157198978_);}
	.st120{fill:url(#SVGID_00000040566889213630682670000005408532523253926541_);}
	.st121{opacity:0.3;fill:url(#SVGID_00000060737494211412566030000011296429320747568534_);}
	.st122{opacity:0.3;fill:url(#SVGID_00000173146903238103178010000006013970416851878308_);}
	.st123{fill:url(#SVGID_00000035528406705476517180000002996406014790395281_);}
	.st124{fill:url(#SVGID_00000110445985003754664360000009927916677729413030_);}
	.st125{fill:url(#SVGID_00000051357869111749434950000013586388732060320694_);}
	.st126{fill:url(#SVGID_00000020381691291522360920000008843528678121653646_);}
	.st127{fill:url(#SVGID_00000170249033910825673810000001915121941542732471_);}
	.st128{fill:url(#SVGID_00000112622564543961848790000018037083818769633208_);}
	.st129{fill:url(#SVGID_00000115489188911666488630000001302688228404614533_);}
	.st130{fill:url(#SVGID_00000122717247204613444790000012626339227574291642_);}
	.st131{fill:url(#SVGID_00000040566653674350634990000011358395104998029987_);}
	.st132{fill:url(#SVGID_00000142880611735459453830000005343148491126125476_);}
	.st133{fill:url(#SVGID_00000141454171089902464590000004059788374561404574_);}
	.st134{fill:url(#SVGID_00000128442710472524570830000018309441334112698790_);}
	.st135{fill:url(#SVGID_00000043423433368962399020000010208188931096423086_);}
	.st136{fill:url(#SVGID_00000157296752437089916730000006656821062557899406_);}
	.st137{fill:url(#SVGID_00000078756824042073928310000016265081528043565736_);}
	.st138{opacity:0.3;fill:url(#SVGID_00000039130371557145890300000007834199377984150916_);}
	.st139{opacity:0.3;fill:url(#SVGID_00000170266538694905305600000010040397219465086647_);}
	.st140{fill:url(#SVGID_00000038388556704343285020000007170619729887807623_);}
	.st141{fill:url(#SVGID_00000147185847917833884960000015531049656644292768_);}
	.st142{fill:url(#SVGID_00000079453815442651562290000006353737568316449933_);}
	.st143{fill:url(#SVGID_00000169535113612199698060000012038142383453276811_);}
	.st144{fill:url(#SVGID_00000110443486756903170590000002402076642336409245_);}
	.st145{fill:url(#SVGID_00000132055433012719570420000009791772525387349169_);}
	.st146{fill:url(#SVGID_00000097463578361706242660000009738371464175283384_);}
	.st147{fill:url(#SVGID_00000165204484694975233170000009628406146421264781_);}
	.st148{fill:url(#SVGID_00000125576143281570498010000003808732088554922157_);}
	.st149{fill:url(#SVGID_00000040536771558088962000000018402821190956562357_);}
	.st150{fill:url(#SVGID_00000090996334437800231180000000273384487501147028_);}
	.st151{fill:url(#SVGID_00000103954399770715899800000003564303039791263153_);}
	.st152{fill:url(#SVGID_00000070840978875130874130000013650201216965251988_);}
	.st153{fill:url(#SVGID_00000145019034584812895970000012501741423810310841_);}
	.st154{opacity:0.3;fill:url(#SVGID_00000103946675335588260780000007872285530421712312_);}
	.st155{fill:url(#SVGID_00000164497954337934800810000009480000476496523450_);}
	.st156{fill:url(#SVGID_00000168107740734077046290000000960542012082494099_);}
	.st157{fill:url(#SVGID_00000165945366145679775140000009512929069073858216_);}
	.st158{fill:url(#SVGID_00000158727761508887550320000005791051816166813075_);}
	.st159{fill:url(#SVGID_00000059289362619116910570000001752436799081392805_);}
	.st160{fill:url(#SVGID_00000121968714736916898760000002891451668414366117_);}
	.st161{fill:url(#SVGID_00000100345310580455229620000010766250250786792104_);}
	.st162{fill:url(#SVGID_00000109718773927446443550000010877129386480434050_);}
	.st163{fill:url(#SVGID_00000031891718400069105010000002824082231199045555_);}
	.st164{fill:url(#SVGID_00000157270371692281717980000014418918245428704899_);}
	.st165{fill:url(#SVGID_00000094589511921568349720000004975359211231813017_);}
	.st166{fill:url(#SVGID_00000168804415174168296720000018226103256620019862_);}
	.st167{fill:url(#SVGID_00000057114849531089425350000006967705137154375326_);}
	.st168{fill:url(#SVGID_00000150816716491428545870000014790018855891670956_);}
	.st169{fill:url(#SVGID_00000164507737040278193110000017377846989327693220_);}
	.st170{fill:url(#SVGID_00000065059508465241596650000017375701926748142999_);}
	.st171{fill:url(#SVGID_00000169552979902929779240000005732384765660057222_);}
	.st172{fill:url(#SVGID_00000137821558122012990440000004464153671199878287_);}
	.st173{fill:url(#SVGID_00000013170778767831268330000016360925003351367598_);}
	.st174{fill:url(#SVGID_00000029745075468772335850000002280616928104169886_);}
	.st175{fill:url(#SVGID_00000175321072964011646910000010475173935066428061_);}
	.st176{fill:url(#SVGID_00000109711683773466605230000009170072457402346916_);}
	.st177{fill:url(#SVGID_00000165205748852493420590000012358020984238144145_);}
	.st178{opacity:0.3;fill:url(#SVGID_00000137108257753165008690000002123635425613136565_);}
	.st179{opacity:0.3;fill:url(#SVGID_00000003807588005231728650000018166663388097006981_);}
	.st180{fill:url(#SVGID_00000142880868937810243080000002842735048187928733_);}
	.st181{fill:url(#SVGID_00000086673180542022279110000002205729369721935790_);}
	.st182{fill:url(#SVGID_00000095302538717436266860000013549958121881966001_);}
	.st183{fill:url(#SVGID_00000090977580976586476060000016436017489175544750_);}
	.st184{fill:url(#SVGID_00000055680248501798877930000006856568815757227654_);}
	.st185{fill:url(#SVGID_00000018221629010626843480000013161230639939849643_);}
	.st186{fill:url(#SVGID_00000150083619388602592650000007970576315488698550_);}
	.st187{fill:url(#SVGID_00000068644913479143733250000007031631178682940814_);}
	.st188{fill:url(#SVGID_00000096743875125351585930000011815246134562199993_);}
	.st189{fill:url(#SVGID_00000080899159450032019370000004487974282680754052_);}
</style>
<g>
	<g>
		<path d="M512.72,921.94c8.13,5.54,17.64,8.32,27.13,8.32c9.51,0,19-2.78,27.12-8.32
			c8.45-5.75,207.77-142.28,287.01-251.99c25.4-35.17,56.54-78.36,60.72-138.22c14.39-114.57-98.88-190.33-210.66-190.33
			c-64.59,0-124.65,62.8-164.18,109.94c-39.51-47.15-99.56-109.94-164.18-109.94c-111.78,0-203.49,84.22-210.66,190.33
			c4.18,59.86,35.31,103.05,60.7,138.22C304.98,779.66,504.28,916.19,512.72,921.94z" class="st5"></path>
		<linearGradient y2="750.2779" x2="754.2493" y1="803.6017" x1="796.9083" gradientUnits="userSpaceOnUse" id="SVGID_1_">
			<stop style="stop-color:#FC3C3B" offset="0"></stop>
			<stop style="stop-color:#A50D08" offset="0.8945"></stop>
		</linearGradient>
		<path d="M512.72,869.24c8.13,5.54,17.64,8.32,27.13,8.32c9.51,0,19-2.78,27.12-8.32
			c8.45-5.75,207.77-142.28,287.01-251.99c25.4-35.17,56.54-78.36,60.72-138.22c-7.17-106.1-98.88-190.33-210.66-190.33
			c-64.59,0-124.65,62.8-164.18,109.94c-39.51-47.15-99.56-109.94-164.18-109.94c-111.78,0-203.49,84.22-210.66,190.33
			c4.18,59.86,35.31,103.05,60.7,138.22C304.98,726.96,504.28,863.48,512.72,869.24z" class="st0"></path>
		<path d="M515.44,840.63c7.31,4.99,15.88,7.49,24.41,7.49c8.56,0,17.1-2.5,24.41-7.49
			c7.6-5.18,186.99-128.05,258.31-226.79c22.86-31.65,50.88-70.52,54.65-124.4c-6.45-95.49-88.99-171.3-189.59-171.3
			c-58.13,0-112.19,56.52-147.76,98.94c-35.56-42.43-89.6-98.94-147.76-98.94c-100.6,0-183.14,75.8-189.59,171.3
			c3.76,53.87,31.78,92.75,54.63,124.4C328.47,712.57,507.84,835.45,515.44,840.63z" class="st24"></path>
		
			<linearGradient y2="768.455" x2="298.0611" y1="278.943" x1="654.2637" gradientUnits="userSpaceOnUse" id="SVGID_00000175304635771882260750000007511775819226055086_">
			<stop style="stop-color:#30080C" offset="0"></stop>
			<stop style="stop-color:#30080C;stop-opacity:0.5" offset="0.674"></stop>
		</linearGradient>
		<path d="M475.6,840.63
			c7.31,4.99,15.88,7.49,24.41,7.49c8.56,0,17.1-2.5,24.41-7.49c7.6-5.18,186.99-128.05,258.31-226.79
			c22.86-31.65,50.88-70.52,54.65-124.4c-6.45-95.49-88.99-171.3-189.59-171.3c-58.13,0-112.19,56.52-147.76,98.94
			c-35.56-42.43-89.6-98.94-147.76-98.94c-100.6,0-183.14,75.8-189.59,171.3c3.76,53.87,31.78,92.75,54.63,124.4
			C288.63,712.57,468,835.45,475.6,840.63z" style="fill:url(#SVGID_00000175304635771882260750000007511775819226055086_);"></path>
	</g>
	<g>
		<path d="M463.64,780.01c8.13,5.54,17.64,8.32,27.13,8.32c9.51,0,19-2.78,27.12-8.32
			c8.45-5.75,207.77-142.28,287.01-251.99c25.4-35.17,56.54-78.36,60.72-138.22c-7.17-106.1-98.88-190.33-210.66-190.33
			c-64.59,0-124.65,62.8-164.18,109.94c-39.51-47.15-99.56-109.94-164.18-109.94c-111.78,0-203.49,84.22-210.66,190.33
			c4.18,59.86,35.31,103.05,60.7,138.22C255.89,637.73,455.2,774.26,463.64,780.01z" class="st5"></path>
		
			<linearGradient y2="771.1675" x2="490.7761" y1="182.3155" x1="490.7761" gradientUnits="userSpaceOnUse" id="SVGID_00000160162264804504794970000006817390920328073358_">
			<stop style="stop-color:#FC3C3B" offset="0"></stop>
			<stop style="stop-color:#A50D08" offset="0.8945"></stop>
		</linearGradient>
		<path d="M463.64,762.85
			c8.13,5.54,17.64,8.32,27.13,8.32c9.51,0,19-2.78,27.12-8.32c8.45-5.75,207.77-142.28,287.01-251.99
			c25.4-35.17,56.54-78.36,60.72-138.22c-7.17-106.1-98.88-190.33-210.66-190.33c-64.59,0-124.65,62.8-164.18,109.94
			c-39.51-47.15-99.56-109.94-164.18-109.94c-111.78,0-203.49,84.22-210.66,190.33c4.18,59.86,35.31,103.05,60.7,138.22
			C255.89,620.57,455.2,757.1,463.64,762.85z" style="fill:url(#SVGID_00000160162264804504794970000006817390920328073358_);"></path>
		<path d="M517.89,762.85c-8.12,5.54-17.61,8.32-27.12,8.32c-9.48,0-19-2.78-27.13-8.32
			c-1.52-1.04-9.28-6.35-21.39-14.97v17.16c12.11,8.62,19.87,13.93,21.39,14.97c8.13,5.54,17.64,8.32,27.13,8.32
			c9.51,0,19-2.78,27.12-8.32c1.52-1.04,9.29-6.35,21.41-14.98v-17.16C527.18,756.5,519.41,761.81,517.89,762.85z" class="st5"></path>
		<path d="M517.89,762.85c-8.12,5.54-17.61,8.32-27.12,8.32c-9.48,0-19-2.78-27.13-8.32
			c-1.52-1.04-9.28-6.35-21.39-14.97v17.16c12.11,8.62,19.87,13.93,21.39,14.97c8.13,5.54,17.64,8.32,27.13,8.32
			c9.51,0,19-2.78,27.12-8.32c1.52-1.04,9.29-6.35,21.41-14.98v-17.16C527.18,756.5,519.41,761.81,517.89,762.85z" class="st27"></path>
		
			<linearGradient y2="309.4106" x2="490.7762" y1="240.1983" x1="490.7762" gradientUnits="userSpaceOnUse" id="SVGID_00000007398581097035916370000008588715409319513015_">
			<stop style="stop-color:#FC3C3B" offset="0"></stop>
			<stop style="stop-color:#A50D08" offset="0.8945"></stop>
		</linearGradient>
		<path d="M490.78,309.41
			c13.87-16.55,30.28-35.02,48.52-52.03v-17.16c-18.24,17.01-34.65,35.49-48.52,52.03c-13.87-16.55-30.28-35.04-48.53-52.05v17.16
			C460.5,274.37,476.91,292.86,490.78,309.41z" style="fill:url(#SVGID_00000007398581097035916370000008588715409319513015_);"></path>
		
			<linearGradient y2="771.1675" x2="490.7762" y1="257.3576" x1="490.7762" gradientUnits="userSpaceOnUse" id="SVGID_00000080165617830779964860000006944709601738611075_">
			<stop style="stop-color:#FC3C3B" offset="0"></stop>
			<stop style="stop-color:#A50D08" offset="0.8945"></stop>
		</linearGradient>
		<path d="M490.78,309.41
			c-13.87-16.55-30.28-35.04-48.53-52.05v490.53c12.11,8.62,19.87,13.93,21.39,14.97c8.13,5.54,17.64,8.32,27.13,8.32
			c9.51,0,19-2.78,27.12-8.32c1.52-1.04,9.29-6.35,21.41-14.98V257.38C521.06,274.39,504.65,292.86,490.78,309.41z" style="fill:url(#SVGID_00000080165617830779964860000006944709601738611075_);"></path>
		
			<linearGradient y2="801.6293" x2="490.7762" y1="214.2147" x1="490.7762" gradientUnits="userSpaceOnUse" id="SVGID_00000096044906186056086180000009777374734668643764_">
			<stop style="stop-color:#F8A8CF" offset="0"></stop>
			<stop style="stop-color:#C95A8C" offset="0.8945"></stop>
		</linearGradient>
		<path d="M490.78,292.25
			c-13.87-16.55-30.28-35.04-48.53-52.05v17.16v490.53c12.11,8.62,19.87,13.93,21.39,14.97c8.13,5.54,17.64,8.32,27.13,8.32
			c9.51,0,19-2.78,27.12-8.32c1.52-1.04,9.29-6.35,21.41-14.98V257.38v-17.16C521.06,257.23,504.65,275.71,490.78,292.25z" style="fill:url(#SVGID_00000096044906186056086180000009777374734668643764_);"></path>
		
			<linearGradient y2="801.6293" x2="490.7762" y1="214.2147" x1="490.7762" gradientUnits="userSpaceOnUse" id="SVGID_00000054988814017847869980000009155200385468962445_">
			<stop style="stop-color:#F8A8CF" offset="0.0553"></stop>
			<stop style="stop-color:#C95A8C" offset="0.3064"></stop>
			<stop style="stop-color:#F8A8CF" offset="0.7688"></stop>
		</linearGradient>
		<path d="M539.3,257.38v-17.16
			c-18.24,17.01-34.65,35.49-48.52,52.03c-13.87-16.55-30.28-35.04-48.53-52.05v17.16v266h97.05V257.38z" style="fill:url(#SVGID_00000054988814017847869980000009155200385468962445_);"></path>
		
			<linearGradient y2="303.1817" x2="450.0458" y1="567.6675" x1="320.6468" gradientUnits="userSpaceOnUse" id="SVGID_00000078732601222877900890000008815439652615332262_">
			<stop style="stop-color:#FFF1F5" offset="0"></stop>
			<stop style="stop-color:#EA9C9C" offset="0.8945"></stop>
		</linearGradient>
		<path d="M406.51,342.51
			c0,0-89.5,182.49-138.32,192.95c0,0,74.39,3.49,89.5-6.97l4.65,51.14c0,0,97.64-77.88,98.8-249.91L406.51,342.51z" style="fill:url(#SVGID_00000078732601222877900890000008815439652615332262_);"></path>
		
			<linearGradient gradientTransform="matrix(-1 0 0 1 933.978 0)" y2="303.1818" x2="399.4964" y1="567.6675" x1="270.0975" gradientUnits="userSpaceOnUse" id="SVGID_00000143589572417576820400000008924295621411979941_">
			<stop style="stop-color:#FFF1F5" offset="0"></stop>
			<stop style="stop-color:#EA9C9C" offset="0.8945"></stop>
		</linearGradient>
		<path d="M578.02,342.51
			c0,0,89.5,182.49,138.32,192.95c0,0-74.39,3.49-89.5-6.97l-4.65,51.14c0,0-97.64-77.88-98.8-249.91L578.02,342.51z" style="fill:url(#SVGID_00000143589572417576820400000008924295621411979941_);"></path>
		<g>
			
				<linearGradient y2="352.541" x2="571.328" y1="326.9456" x1="761.6938" gradientUnits="userSpaceOnUse" id="SVGID_00000000934790503769366240000011271300233046981042_">
				<stop style="stop-color:#FFF1F5" offset="0"></stop>
				<stop style="stop-color:#EA9C9C" offset="0.8945"></stop>
			</linearGradient>
			<path d="M503.85,349.17
				c0,0,66.48-103.41,144.04-124.96c0,0,125.57,104.03,16,233.91C663.9,458.13,525.39,459.97,503.85,349.17z" style="fill:url(#SVGID_00000000934790503769366240000011271300233046981042_);"></path>
			
				<linearGradient y2="239.9858" x2="602.614" y1="435.1507" x1="638.3409" gradientUnits="userSpaceOnUse" id="SVGID_00000172409303857293975940000008865933418765593512_">
				<stop style="stop-color:#FEDAE3;stop-opacity:0.2" offset="0"></stop>
				<stop style="stop-color:#FFEEF3;stop-opacity:0.7" offset="0.8945"></stop>
			</linearGradient>
			<path d="M647.89,224.22
				c-48.83,13.56-93.26,59.57-119.48,91.8c0.51,9.09,3.68,19.65,15.67,19.65c25.6,0,99.04-35.38,107-3.2
				c8.18,33.06-82.6,38.87-92.78,51.9c-8.68,11.11-14.16,36.2,133.51,32.31C747.58,306.8,647.89,224.22,647.89,224.22z" style="fill:url(#SVGID_00000172409303857293975940000008865933418765593512_);"></path>
		</g>
		<g>
			
				<linearGradient gradientTransform="matrix(-1 0 0 1 1277.4308 0)" y2="352.541" x2="865.5114" y1="326.9456" x1="1055.8771" gradientUnits="userSpaceOnUse" id="SVGID_00000063611259748393152480000000164989460915661957_">
				<stop style="stop-color:#FFF1F5" offset="0"></stop>
				<stop style="stop-color:#EA9C9C" offset="0.8945"></stop>
			</linearGradient>
			<path d="M479.4,349.17
				c0,0-66.48-103.41-144.04-124.96c0,0-125.57,104.03-16,233.91C319.35,458.13,457.85,459.97,479.4,349.17z" style="fill:url(#SVGID_00000063611259748393152480000000164989460915661957_);"></path>
			
				<linearGradient gradientTransform="matrix(-1 0 0 1 1277.4308 0)" y2="239.9858" x2="896.7973" y1="435.1507" x1="932.5242" gradientUnits="userSpaceOnUse" id="SVGID_00000111158567145771110650000008350929045440802736_">
				<stop style="stop-color:#FEDAE3;stop-opacity:0.2" offset="0"></stop>
				<stop style="stop-color:#FFEEF3;stop-opacity:0.7" offset="0.8945"></stop>
			</linearGradient>
			<path d="M335.36,224.22
				c48.83,13.56,93.26,59.57,119.48,91.8c-0.51,9.09-3.68,19.65-15.67,19.65c-25.6,0-99.04-35.38-107-3.2
				c-8.18,33.06,82.6,38.87,92.78,51.9c8.68,11.11,14.16,36.2-133.51,32.31C235.67,306.8,335.36,224.22,335.36,224.22z" style="fill:url(#SVGID_00000111158567145771110650000008350929045440802736_);"></path>
		</g>
		
			<linearGradient y2="374.5881" x2="493.1573" y1="321.7976" x1="493.1573" gradientUnits="userSpaceOnUse" id="SVGID_00000023273273034466048090000014922942437360944021_">
			<stop style="stop-color:#FFEEF3" offset="0"></stop>
			<stop style="stop-color:#EEB3C2" offset="0.8945"></stop>
		</linearGradient>
		
			<rect height="38.93" width="46.39" style="fill:url(#SVGID_00000023273273034466048090000014922942437360944021_);" y="335.66" x="469.96"></rect>
		
			<linearGradient y2="354.7186" x2="501.5339" y1="1009.9886" x1="476.4385" gradientUnits="userSpaceOnUse" id="SVGID_00000182527530104116195100000010585127232552105623_">
			<stop style="stop-color:#F693C1;stop-opacity:0" offset="0.386"></stop>
			<stop style="stop-color:#F7A5CE" offset="0.8945"></stop>
		</linearGradient>
		<path d="M526.57,425.61
			c-1.56-14.1-13.48-24.77-27.67-24.77h-13.93c-13.98,0-25.79,10.36-27.6,24.22l-15.12,98.3v224.52
			c39.28,31.1,57.78,31.08,97.05-0.01V523.36L526.57,425.61z" style="fill:url(#SVGID_00000182527530104116195100000010585127232552105623_);"></path>
	</g>
</g>
</svg>
